<?xml version="1.0" encoding="UTF-8" standalone="no"?>
<!DOCTYPE svg PUBLIC "-//W3C//DTD SVG 1.1//EN" "http://www.w3.org/Graphics/SVG/1.1/DTD/svg11.dtd">
<svg width="100%" height="100%" viewBox="0 0 1540 320" version="1.1" xmlns="http://www.w3.org/2000/svg" xmlns:xlink="http://www.w3.org/1999/xlink" xml:space="preserve" xmlns:serif="http://www.serif.com/" style="fill-rule:evenodd;clip-rule:evenodd;stroke-linejoin:round;stroke-miterlimit:2;">
    <g id="Logotype" transform="matrix(1,0,0,1,237.206,-801.67)">
        <g id="s" transform="matrix(362.972,0,0,362.972,290,1070)">
            <path d="M0.262,0.011C0.396,0.011 0.491,-0.057 0.491,-0.159L0.491,-0.16C0.491,-0.237 0.446,-0.28 0.336,-0.303L0.248,-0.322C0.195,-0.333 0.177,-0.351 0.177,-0.377L0.177,-0.378C0.177,-0.412 0.208,-0.434 0.257,-0.434C0.31,-0.434 0.34,-0.405 0.345,-0.368L0.346,-0.364L0.477,-0.364L0.477,-0.369C0.474,-0.46 0.396,-0.534 0.257,-0.534C0.124,-0.534 0.038,-0.47 0.038,-0.37L0.038,-0.37C0.038,-0.292 0.089,-0.241 0.19,-0.219L0.279,-0.201C0.331,-0.189 0.348,-0.173 0.348,-0.146L0.348,-0.145C0.348,-0.111 0.315,-0.09 0.262,-0.09C0.205,-0.09 0.174,-0.114 0.165,-0.155L0.164,-0.16L0.024,-0.16L0.025,-0.155C0.036,-0.056 0.117,0.011 0.262,0.011Z" style="fill:rgb(55,65,81);fill-rule:nonzero;"/>
        </g>
        <g id="i" transform="matrix(362.972,0,0,362.972,476.803,1070)">
            <rect x="0.049" y="-0.523" width="0.143" height="0.523" style="fill:rgb(55,65,81);fill-rule:nonzero;"/>
        </g>
        <g id="_." serif:id="." transform="matrix(362.972,0,0,362.972,476.803,1070)">
            <path d="M0.121,-0.591C0.164,-0.591 0.197,-0.625 0.197,-0.665C0.197,-0.706 0.164,-0.739 0.121,-0.739C0.078,-0.739 0.044,-0.706 0.044,-0.665C0.044,-0.625 0.078,-0.591 0.121,-0.591Z" style="fill:rgb(55,65,81);fill-rule:nonzero;"/>
        </g>
        <g id="c" transform="matrix(362.972,0,0,362.972,564.179,1070)">
            <path d="M0.286,0.011C0.416,0.01 0.509,-0.061 0.512,-0.157L0.512,-0.16L0.38,-0.16L0.379,-0.156C0.363,-0.121 0.333,-0.101 0.287,-0.101C0.216,-0.101 0.172,-0.159 0.172,-0.262L0.172,-0.262C0.172,-0.362 0.216,-0.422 0.286,-0.422C0.338,-0.422 0.371,-0.403 0.377,-0.368L0.378,-0.364L0.512,-0.364L0.512,-0.367C0.509,-0.45 0.416,-0.535 0.284,-0.534C0.127,-0.533 0.027,-0.43 0.027,-0.263L0.027,-0.262C0.027,-0.093 0.126,0.012 0.286,0.011Z" style="fill:rgb(55,65,81);fill-rule:nonzero;"/>
        </g>
        <g id="e" transform="matrix(362.972,0,0,362.972,757.274,1070)">
            <path d="M0.285,0.011C0.434,0.011 0.506,-0.078 0.522,-0.155L0.524,-0.16L0.393,-0.16L0.392,-0.157C0.382,-0.128 0.346,-0.096 0.288,-0.096C0.215,-0.096 0.169,-0.145 0.168,-0.228L0.528,-0.228L0.528,-0.272C0.528,-0.43 0.432,-0.534 0.279,-0.534C0.125,-0.534 0.027,-0.428 0.027,-0.261L0.027,-0.261C0.027,-0.093 0.125,0.011 0.285,0.011ZM0.281,-0.428C0.34,-0.428 0.383,-0.39 0.392,-0.318L0.169,-0.318C0.179,-0.389 0.223,-0.428 0.281,-0.428Z" style="fill:rgb(55,65,81);fill-rule:nonzero;"/>
        </g>
        <g id="s1" serif:id="s" transform="matrix(362.972,0,0,362.972,958.788,1070)">
            <path d="M0.262,0.011C0.396,0.011 0.491,-0.057 0.491,-0.159L0.491,-0.16C0.491,-0.237 0.446,-0.28 0.336,-0.303L0.248,-0.322C0.195,-0.333 0.177,-0.351 0.177,-0.377L0.177,-0.378C0.177,-0.412 0.208,-0.434 0.257,-0.434C0.31,-0.434 0.34,-0.405 0.345,-0.368L0.346,-0.364L0.477,-0.364L0.477,-0.369C0.474,-0.46 0.396,-0.534 0.257,-0.534C0.124,-0.534 0.038,-0.47 0.038,-0.37L0.038,-0.37C0.038,-0.292 0.089,-0.241 0.19,-0.219L0.279,-0.201C0.331,-0.189 0.348,-0.173 0.348,-0.146L0.348,-0.145C0.348,-0.111 0.315,-0.09 0.262,-0.09C0.205,-0.09 0.174,-0.114 0.165,-0.155L0.164,-0.16L0.024,-0.16L0.025,-0.155C0.036,-0.056 0.117,0.011 0.262,0.011Z" style="fill:rgb(55,65,81);fill-rule:nonzero;"/>
        </g>
        <g id="i1" serif:id="i" transform="matrix(362.972,0,0,362.972,1145.59,1070)">
            <rect x="0.049" y="-0.523" width="0.143" height="0.523" style="fill:rgb(55,65,81);fill-rule:nonzero;"/>
        </g>
        <g id="_.1" serif:id="." transform="matrix(362.972,0,0,362.972,1145.59,1070)">
            <path d="M0.121,-0.591C0.164,-0.591 0.197,-0.625 0.197,-0.665C0.197,-0.706 0.164,-0.739 0.121,-0.739C0.078,-0.739 0.044,-0.706 0.044,-0.665C0.044,-0.625 0.078,-0.591 0.121,-0.591Z" style="fill:rgb(55,65,81);fill-rule:nonzero;"/>
        </g>
        <g id="_.2" serif:id="." transform="matrix(362.972,0,0,362.972,1226.67,1288.13)">
            <path d="M0.121,-0.591C0.164,-0.591 0.197,-0.625 0.197,-0.665C0.197,-0.706 0.164,-0.739 0.121,-0.739C0.078,-0.739 0.044,-0.706 0.044,-0.665C0.044,-0.625 0.078,-0.591 0.121,-0.591Z" style="fill:url(#_Linear1);fill-rule:nonzero;"/>
        </g>
    </g>
    <g id="Logomark" transform="matrix(0.785244,0,0,0.785244,-331.735,-942.293)">
        <path d="M659.789,1606.23C630.076,1567.26 588.157,1498.39 588.157,1420C588.157,1298.58 655.205,1200 688.729,1200C711.636,1200 750.195,1246.03 772.316,1313.9C750.737,1335.2 730.387,1360.56 713.529,1389.76C671.018,1463.39 674.376,1551.9 682.743,1607.52C675.01,1607.42 667.358,1606.98 659.789,1606.23ZM700.946,1607.13C693.71,1560.44 688.21,1472.42 730.489,1399.19C791.199,1294.04 898.554,1242.19 927.586,1258.95C933.622,1262.43 938.782,1270.33 942.623,1281.6C947.136,1300.26 949.662,1319.68 949.968,1339.63C949.51,1369.54 943.971,1404.91 931.401,1441.17C894.336,1534.27 805.762,1601.35 700.946,1607.13ZM429.807,1281.6C433.647,1270.33 438.807,1262.43 444.843,1258.95C465.735,1246.89 527.184,1270.35 582.631,1323.65C574.385,1353.25 569.3,1385.81 569.3,1420C569.3,1492.53 603.625,1557.75 635.473,1602.65C546.685,1585.33 473.769,1523.4 441.028,1441.17C428.458,1404.91 422.919,1369.53 422.461,1339.63C422.769,1319.67 425.298,1300.25 429.807,1281.6Z" style="fill:url(#_Linear2);"/>
    </g>
    <defs>
        <linearGradient id="_Linear1" x1="0" y1="0" x2="1" y2="0" gradientUnits="userSpaceOnUse" gradientTransform="matrix(0.149383,-0.0771409,0.0771409,0.149383,0.0473944,-0.629056)"><stop offset="0" style="stop-color:rgb(244,89,0);stop-opacity:1"/><stop offset="1" style="stop-color:rgb(248,133,63);stop-opacity:1"/></linearGradient>
        <linearGradient id="_Linear2" x1="0" y1="0" x2="1" y2="0" gradientUnits="userSpaceOnUse" gradientTransform="matrix(527.507,0,0,527.507,422.461,1378.29)"><stop offset="0" style="stop-color:rgb(0,163,224);stop-opacity:1"/><stop offset="1" style="stop-color:rgb(56,189,247);stop-opacity:1"/></linearGradient>
    </defs>
</svg>
