<svg fill-rule="evenodd" stroke-linejoin="round" stroke-miterlimit="2" clip-rule="evenodd" viewBox="0 0 1540 320">
  <path fill="#374151" fill-rule="nonzero" d="M622.305 272.323c48.638 0 83.12-24.682 83.12-61.706v-.363c0-27.948-16.333-43.556-56.26-51.905l-31.942-6.896c-19.237-3.993-25.771-10.526-25.771-19.963v-.363c0-12.341 11.252-20.327 29.038-20.327 19.237 0 30.126 10.526 31.941 23.956l.363 1.452h47.55v-1.815c-1.09-33.03-29.401-59.89-79.854-59.89-48.275 0-79.491 23.23-79.491 59.527 0 28.312 18.512 46.824 55.172 54.81l32.304 6.533c18.875 4.355 25.045 10.163 25.045 19.963v.363c0 12.341-11.978 19.964-31.215 19.964-20.69 0-31.942-8.712-35.209-23.594l-.363-1.815h-50.816l.363 1.815c3.993 35.935 33.394 60.254 86.025 60.254zM731.795 78.496H783.7V268.33h-51.905zM757.929 53.814c15.607 0 27.585-12.341 27.585-26.86 0-14.882-11.978-26.86-27.585-26.86-15.608 0-27.95 11.978-27.95 26.86 0 14.519 12.342 26.86 27.95 26.86zM905.195 272.323c47.186-.363 80.943-26.134 82.032-60.98v-1.089h-47.913l-.363 1.452c-5.807 12.704-16.696 19.964-33.393 19.964-25.771 0-41.742-21.053-41.742-58.439 0-36.297 15.971-58.075 41.379-58.075 18.875 0 30.853 6.896 33.03 19.6l.363 1.452h48.639v-1.089c-1.09-30.126-34.846-60.979-82.758-60.616-56.987.363-93.284 37.749-93.284 98.365v.363c0 61.343 35.934 99.455 94.01 99.092zM1097.927 272.323c54.083 0 80.217-32.305 86.024-60.254l.726-1.815h-47.549l-.363 1.09c-3.63 10.526-16.697 22.14-37.75 22.14-26.496 0-43.193-17.785-43.556-47.912h130.67v-15.97c0-57.35-34.845-95.099-90.38-95.099-55.897 0-91.469 38.475-91.469 99.091 0 60.98 35.572 98.729 93.647 98.729zm-1.452-159.345c21.415 0 37.023 13.793 40.29 39.927h-80.943c3.63-25.771 19.6-39.927 40.653-39.927zM1291.093 272.323c48.638 0 83.12-24.682 83.12-61.706v-.363c0-27.948-16.333-43.556-56.26-51.905l-31.942-6.896c-19.237-3.993-25.771-10.526-25.771-19.963v-.363c0-12.341 11.252-20.327 29.038-20.327 19.237 0 30.126 10.526 31.941 23.956l.363 1.452h47.55v-1.815c-1.09-33.03-29.401-59.89-79.854-59.89-48.275 0-79.491 23.23-79.491 59.527 0 28.312 18.512 46.824 55.172 54.81l32.304 6.533c18.875 4.355 25.045 10.163 25.045 19.963v.363c0 12.341-11.978 19.964-31.215 19.964-20.69 0-31.942-8.712-35.209-23.594l-.363-1.815h-50.816l.363 1.815c3.993 35.935 33.394 60.254 86.025 60.254zM1400.582 78.496h51.905V268.33h-51.905zM1426.716 53.814c15.607 0 27.585-12.341 27.585-26.86 0-14.882-11.978-26.86-27.585-26.86-15.608 0-27.95 11.978-27.95 26.86 0 14.519 12.342 26.86 27.95 26.86z"/>
  <path fill="url(#_Linear1)" fill-rule="nonzero" d="M.121-.591a.075.075 0 00.076-.074.074.074 0 00-.076-.074.075.075 0 00-.077.074c0 .04.034.074.077.074z" transform="translate(1463.876 486.46) scale(362.972)"/>
  <g>
    <path fill="url(#_Linear2)" d="M659.789 1606.23c-29.713-38.97-71.632-107.84-71.632-186.23 0-121.42 67.048-220 100.572-220 22.907 0 61.466 46.03 83.587 113.9-21.579 21.3-41.929 46.66-58.787 75.86-42.511 73.63-39.153 162.14-30.786 217.76-7.733-.1-15.385-.54-22.954-1.29zm41.157.9c-7.236-46.69-12.736-134.71 29.543-207.94 60.71-105.15 168.065-157 197.097-140.24 6.036 3.48 11.196 11.38 15.037 22.65 4.513 18.66 7.039 38.08 7.345 58.03-.458 29.91-5.997 65.28-18.567 101.54-37.065 93.1-125.639 160.18-230.455 165.96zM429.807 1281.6c3.84-11.27 9-19.17 15.036-22.65 20.892-12.06 82.341 11.4 137.788 64.7-8.246 29.6-13.331 62.16-13.331 96.35 0 72.53 34.325 137.75 66.173 182.65-88.788-17.32-161.704-79.25-194.445-161.48-12.57-36.26-18.109-71.64-18.567-101.54a264.04 264.04 0 017.346-58.03z" transform="matrix(.78524 0 0 .78524 -331.735 -942.293)"/>
  </g>
  <defs>
    <linearGradient id="_Linear1" x1="0" x2="1" y1="0" y2="0" gradientTransform="matrix(.14938 -.07714 .07714 .14938 .047 -.63)" gradientUnits="userSpaceOnUse">
      <stop offset="0" stop-color="#f45900"/>
      <stop offset="1" stop-color="#f8853f"/>
    </linearGradient>
    <linearGradient id="_Linear2" x1="0" x2="1" y1="0" y2="0" gradientTransform="translate(422.461 1378.29) scale(527.507)" gradientUnits="userSpaceOnUse">
      <stop offset="0" stop-color="#00a3e0"/>
      <stop offset="1" stop-color="#38bdf7"/>
    </linearGradient>
  </defs>
</svg>
