<svg viewBox="0 0 1440 44">
    <path
    fill="#374151"
    d="M0 25.872s85.778-14.71 174.236-17.486c78.267-2.456 188.887.378 281.46 8.327 164.854 14.155 193 33.307 321.666 16.653C906.03 16.713 994.285 1.068 1099.03.06c172.896-1.665 340.967 32.37 340.967 32.37V75H0V25.872z"
    />
    <path
    fill="#374151"
    fill-opacity=".5"
    d="M0 25.04c44.308 3.685 165.23-17.07 258.462-12.49C348.099 16.951 446.41 33.365 540 33.365S740.05 10.18 820 12.549c79 2.341 131.036 19.662 200 20.817 78.72 1.318 205.19-10.96 272.308-12.906C1380.83 17.893 1392 40.86 1440 33.366V75H0V25.04z"
    />
    <path
    fill="#374151"
    fill-opacity=".5"
    d="M0 75V16.713s72-10.825 154 7.494c43.265 9.665 81.957-1.83 134 7.152C384 25.56 489.333 9.788 576 8.596c78.646-1.082 153.503 13.575 232 15.61 105.667 2.741 355.69 11.35 402 .833 132-29.976 230-8.326 230-8.326V75H0z"
    />
</svg>
